<svg width="80" height="80" viewBox="0 0 80 80" fill="none" xmlns="http://www.w3.org/2000/svg">
<g clip-path="url(#clip0_32_7)">
<path d="M53.3333 53.3334C60.6971 53.3334 66.6667 47.3638 66.6667 40C66.6667 32.6362 60.6971 26.6667 53.3333 26.6667C45.9695 26.6667 40 32.6362 40 40C40 47.3638 45.9695 53.3334 53.3333 53.3334Z" fill="#19BCFE"/>
<path fill-rule="evenodd" clip-rule="evenodd" d="M26.6667 80C34.0305 80 40 74.0304 40 66.6666C40 64.6565 40 60.212 40 53.3333C34.0102 53.3333 29.5657 53.3333 26.6667 53.3333C19.3029 53.3333 13.3334 59.3028 13.3334 66.6666C13.3334 74.0304 19.3029 80 26.6667 80Z" fill="#09CF83"/>
<path fill-rule="evenodd" clip-rule="evenodd" d="M26.6667 53.3334C29.1213 53.3334 33.5657 53.3334 40 53.3334V26.6667C33.5657 26.6667 29.1213 26.6667 26.6667 26.6667C19.3029 26.6667 13.3334 32.6362 13.3334 40C13.3334 47.3638 19.3029 53.3334 26.6667 53.3334Z" fill="#A259FF"/>
<path fill-rule="evenodd" clip-rule="evenodd" d="M26.6667 26.6667C29.1213 26.6667 33.5657 26.6667 40 26.6667V0C33.5657 0 29.1213 0 26.6667 0C19.3029 0 13.3334 5.96954 13.3334 13.3333C13.3334 20.6971 19.3029 26.6667 26.6667 26.6667Z" fill="#F24E1E"/>
<path fill-rule="evenodd" clip-rule="evenodd" d="M53.3333 26.6667H40V0H53.3333C60.6971 0 66.6667 5.96954 66.6667 13.3333C66.6667 20.6971 60.6971 26.6667 53.3333 26.6667Z" fill="#FF7262"/>
</g>
<defs>
<clipPath id="clip0_32_7">
<rect width="80" height="80" fill="white"/>
</clipPath>
</defs>
</svg>
