<svg width="21" height="20" viewBox="0 0 21 20" fill="none" xmlns="http://www.w3.org/2000/svg">
<path d="M9.37654 0.859336C9.67639 -0.0609409 10.9783 -0.06094 11.2782 0.859337L13.0292 6.23373C13.1634 6.64536 13.5471 6.92394 13.98 6.92394H19.6408C20.6102 6.92394 21.0125 8.16497 20.2275 8.73373L15.6526 12.0484C15.3012 12.303 15.1541 12.7553 15.2886 13.168L17.0371 18.5346C17.3372 19.4554 16.2839 20.2224 15.4996 19.6542L10.9141 16.3318C10.564 16.0782 10.0907 16.0782 9.74063 16.3318L5.15508 19.6542C4.37082 20.2224 3.31753 19.4554 3.61756 18.5346L5.36613 13.168C5.50058 12.7553 5.3535 12.303 5.00204 12.0484L0.427169 8.73373C-0.357838 8.16497 0.044493 6.92394 1.01389 6.92394H6.67464C7.10757 6.92394 7.49133 6.64536 7.62545 6.23373L9.37654 0.859336Z" fill="#070707"/>
</svg>
