<svg width="21" height="20" viewBox="0 0 21 20" fill="none" xmlns="http://www.w3.org/2000/svg">
<path d="M9.47371 0.859336C9.77356 -0.0609409 11.0755 -0.06094 11.3753 0.859337L13.1264 6.23373C13.2605 6.64536 13.6443 6.92394 14.0772 6.92394H19.738C20.7074 6.92394 21.1097 8.16497 20.3247 8.73373L15.7498 12.0484C15.3984 12.303 15.2513 12.7553 15.3857 13.168L17.1343 18.5346C17.4343 19.4554 16.381 20.2224 15.5968 19.6542L11.0112 16.3318C10.6612 16.0782 10.1878 16.0782 9.8378 16.3318L5.25225 19.6542C4.46799 20.2224 3.4147 19.4554 3.71472 18.5346L5.4633 13.168C5.59775 12.7553 5.45067 12.303 5.09921 12.0484L0.524337 8.73373C-0.26067 8.16497 0.141661 6.92394 1.11106 6.92394H6.77181C7.20474 6.92394 7.5885 6.64536 7.72262 6.23373L9.47371 0.859336Z" fill="#E5E5E5"/>
</svg>
